<?xml version="1.0" encoding="UTF-8"?>
<svg id="lamp" xmlns="http://www.w3.org/2000/svg" viewBox="0 0 281.04255 281.04255">

<defs>

<style>

.cls-1 {
    fill:#fff;
    }
.cls-1,.cls-2,.cls-3 {
    stroke-width:0px;
    }
.cls-2 {
    fill:#818181;
    }
.cls-3 {
    fill:#ffd84b;
    }
#light:hover {
    transition: all 0.4s ease-in-out;
    fill: rgb(160, 160, 160);
}

</style>

<script>
    const vectorGraphic = document.querySelector('#lamp');
        
    function logThisId() {
        console.log(this);
        console.log('You turned the switch!');
        }
        
    vectorGraphic.addEventListener('click', logThisId);
</script>

</defs>

<circle id="lamp_bc" class="cls-1" cx="140.52128" cy="140.52128" r="140.52128"/>

<path id="light" class="cls-3" d="m184.86063,137.89927c7.00415-9.28967,11.16064-20.84735,11.16064-33.37799,0-30.65179-24.84814-55.5-55.5-55.5s-55.5,24.84821-55.5,55.5c0,11.70471,3.63208,22.55658,9.81824,31.50836,5.22125,9.44043,11.9353,20.14618,12.85046,30.29706,1.40082,15.53754,4.54089,23.83899,7.97278,27.69458,4,4,12.66608,7,24.85852,7,12.92737,0,21.14148-3,24.42773-6.95123,3.28198-4.17072,6.77673-13.02509,8.10364-27.74335.85535-9.48669,6.77478-19.45709,11.80798-28.42743Z"/>

<path id="bottom" class="cls-2" d="m161.81199,213.6879h-.07178c1.51611,0,2.74524-1.22906,2.74524-2.74518v-2.8429c0-1.51617-1.22913-2.74524-2.74524-2.74524,1.51611,0,2.74524-1.22906,2.74524-2.74524v-2.84283c0-1.51617-1.22913-2.74524-2.74524-2.74524h-42.50952c-1.51617,0-2.74524,1.22906-2.74524,2.74524v2.84283c0,1.51617,1.22906,2.74524,2.74524,2.74524-1.51617,0-2.74524,1.22906-2.74524,2.74524v2.8429c0,1.51611,1.22906,2.74518,2.74524,2.74518h.07166c-1.51611,0-2.74518,1.22913-2.74518,2.74524v2.8429c0,1.44495,1.12006,2.61609,2.53723,2.72424l3.11975,5.03473c.48663.78534,1.56165,1.3949,2.90308,1.72162-.07837.24243-.13177.49615-.13177.76465,0,1.38068,1.11926,2.5,2.5,2.5h26c1.38074,0,2.5-1.11932,2.5-2.5,0-.26849-.05334-.52222-.13171-.76465,1.34131-.32672,2.41638-.93628,2.90308-1.72162l3.11011-5.01929c1.49011-.03003,2.69019-1.24237,2.69019-2.73969v-2.8429c0-1.51611-1.229-2.74524-2.74512-2.74524Z"/>

</svg>