<?xml version="1.0" encoding="UTF-8"?>
<svg id="spinner" xmlns="http://www.w3.org/2000/svg" viewBox="0 0 281.04255 281.04255">

<defs>

<style>
.cls-1 {
    fill:#8bd5e6;
    }
.cls-1,.cls-2,.cls-3,.cls-4 {
    stroke-width:0px;
    }
.cls-2 {
    fill:#fff;
    }
.cls-3 {
    fill:#4e4e4e;
    }
.cls-4 {
    fill:#57c8e3;
    }

#spin {
    transition: all 0.7s ease-out;
    transform-origin: center;
    }
        
#spinner:hover #spin {
    transform: rotate(720deg);
    }
</style>

</defs>

<g id="spin">
<circle id="spinner_bc" class="cls-2" cx="140.52128" cy="140.52128" r="140.52128"/>

<path id="spinner_body" class="cls-1" d="m203.12908,143.49281c-2.03063-.02297-14.86547-.32156-23.49366-7.94012-3.6425-3.21627-6.14463-7.3047-6.14467-7.30475-5.54493-9.05777-5.991-19.79417-2.16842-28.89049,3.65441-5.71325,5.78153-12.49755,5.78153-19.78273,0-20.18122-16.25827-36.55787-36.3905-36.76493v-.00973c-.06441,0-.12773.00454-.19209.00487-.06436-.00033-.12768-.00487-.19209-.00487v.00973c-20.13222.20707-36.3905,16.58371-36.3905,36.76493,0,7.28519,2.12712,14.06949,5.78153,19.78273,3.82258,9.09632,3.37651,19.83273-2.16842,28.89049-.00005.00005-2.50217,4.08848-6.14467,7.30475-8.62818,7.61856-21.46303,7.91716-23.49366,7.94012-19.45914.95452-34.94331,17.03248-34.94331,36.72836,0,20.31008,16.46458,36.77467,36.77467,36.77467,14.14793,0,26.4222-7.99399,32.57259-19.70727l.02424.0379c5.19384-10.32071,15.85492-17.41192,28.17961-17.48555,12.32469.07362,22.98577,7.16483,28.17961,17.48555l.02424-.0379c6.15039,11.71328,18.42466,19.70727,32.57259,19.70727,20.31008,0,36.77467-16.46458,36.77467-36.77467,0-19.69588-15.48417-35.77384-34.94331-36.72836Zm-122.61004,52.59953c-8.55163,0-15.48407-6.93249-15.48407-15.48407s6.93244-15.48407,15.48407-15.48407,15.48407,6.93244,15.48407,15.48407-6.93244,15.48407-15.48407,15.48407Zm59.61367-101.42066c-8.55163,0-15.48407-6.93249-15.48407-15.48407s6.93244-15.48407,15.48407-15.48407,15.48407,6.93244,15.48407,15.48407-6.93244,15.48407-15.48407,15.48407Zm59.61367,101.42066c-8.55163,0-15.48407-6.93249-15.48407-15.48407s6.93244-15.48407,15.48407-15.48407,15.48407,6.93244,15.48407,15.48407-6.93244,15.48407-15.48407,15.48407Z"/>

<path id="circle" class="cls-3" d="m140.51981,55.1873c-13.0412,0-23.61321,10.57196-23.61321,23.61321s10.57201,23.61321,23.61321,23.61321,23.61321-10.57201,23.61321-23.61321-10.57201-23.61321-23.61321-23.61321Zm-.3871,39.48438c-8.55163,0-15.48407-6.93249-15.48407-15.48407s6.93244-15.48407,15.48407-15.48407,15.48407,6.93244,15.48407,15.48407-6.93244,15.48407-15.48407,15.48407Z"/>
<path id="circle-2" class="cls-3" d="m80.13194,156.60796c-13.0412,0-23.61321,10.57196-23.61321,23.61321s10.57201,23.61321,23.61321,23.61321,23.61321-10.57201,23.61321-23.61321-10.57201-23.61321-23.61321-23.61321Zm.3871,39.48438c-8.55163,0-15.48407-6.93249-15.48407-15.48407s6.93244-15.48407,15.48407-15.48407,15.48407,6.93244,15.48407,15.48407-6.93244,15.48407-15.48407,15.48407Z"/>
<path id="circle-3" class="cls-3" d="m200.13348,156.60796c-13.0412,0-23.61321,10.57196-23.61321,23.61321s10.57201,23.61321,23.61321,23.61321,23.61321-10.57201,23.61321-23.61321-10.57201-23.61321-23.61321-23.61321Zm-.3871,39.48438c-8.55163,0-15.48407-6.93249-15.48407-15.48407s6.93244-15.48407,15.48407-15.48407,15.48407,6.93244,15.48407,15.48407-6.93244,15.48407-15.48407,15.48407Z"/>
</g>

<circle id="center" class="cls-4" cx="140.26037" cy="142.40668" r="24.55419"/>

</svg>