<?xml version="1.0" encoding="UTF-8"?>

<svg id="star" xmlns="http://www.w3.org/2000/svg" viewBox="0 0 281.04255 281.04255">

<defs>

<style>
.cls-1 {
    fill:#f6eb16;
    }
.cls-1,.cls-2,.cls-3 {
    stroke-width:0px;
    }
.cls-2 {
    fill:#fff;
    }
.cls-3 {
    fill:#facf0a;
    }

#star_contour, #star_body {
    transition: all 0.8s ease;
    transform-origin: center;
}

#star:hover #star_contour {
    transform: rotate(360deg);
    fill: rgb(255, 155, 127);
    stroke: rgb(255, 155, 127);
    stroke-width: 12px;
}

#star:hover #star_body {
    transform: rotate(-360deg);
}
</style>

</defs>

<circle id="star_bc" class="cls-2" cx="140.52128" cy="140.52128" r="140.52128"/>

<path id="star_contour" class="cls-3" d="m149.49537,60.24664l18.83931,38.17261c1.45771,2.95365,4.27548,5.00088,7.53503,5.47452l42.12597,6.12126c8.20836,1.19274,11.48592,11.28003,5.54629,17.06974l-30.48264,29.71323c-2.35863,2.2991-3.43492,5.61158-2.87813,8.85796l7.19598,41.95575c1.40216,8.17519-7.1786,14.40948-14.52039,10.54968l-37.67862-19.80882c-2.91543-1.53273-6.39838-1.53273-9.31381,0l-37.67862,19.80882c-7.34178,3.8598-15.92254-2.37448-14.52039-10.54968l7.19598-41.95575c.5568-3.24638-.5195-6.55886-2.87813-8.85796l-30.48264-29.71323c-5.93963-5.7897-2.66207-15.87699,5.54629-17.06974l42.12597-6.12126c3.25955-.47364,6.07732-2.52087,7.53503-5.47452l18.83931-38.17261c3.67089-7.43804,14.27729-7.43804,17.94818,0Z"/>

<g id="star_body">
<path class="cls-1" d="m147.98653,73.15152l15.6718,31.75453c1.21262,2.45704,3.55663,4.16007,6.26814,4.55407l35.0432,5.09208c6.82826.9922,9.55476,9.38349,4.61378,14.19975l-25.3575,24.71745c-1.96207,1.91254-2.8574,4.66809-2.39422,7.36864l5.98609,34.9016c1.16641,6.80067-5.97164,11.98677-12.07903,8.77593l-31.34359-16.4783c-2.42525-1.27503-5.3226-1.27503-7.74785,0l-31.34359,16.4783c-6.10738,3.21084-13.24543-1.97526-12.07903-8.77593l5.98609-34.9016c.46318-2.70055-.43215-5.4561-2.39422-7.36864l-25.3575-24.71745c-4.94098-4.81626-2.21448-13.20754,4.61378-14.19975l35.0432-5.09208c2.71151-.39401,5.05552-2.09703,6.26814-4.55407l15.6718-31.75453c3.05369-6.18746,11.87681-6.18746,14.9305,0Z"/>
</g>

</svg>