<?xml version="1.0" encoding="UTF-8"?>
<svg id="sun" xmlns="http://www.w3.org/2000/svg" viewBox="0 0 281.04257 281.04257">

<defs>

<style>

.cls-1 {
    fill:#fff;
    }
.cls-1,.cls-2,.cls-3 {
    stroke-width:0px;
    }
.cls-2 {
    fill:#ffce00;
    }
.cls-3 {
    fill:#ffce00;
    }
#sun:hover #sun_shine {
    transition: all 0.4s ease-in-out;
    fill: rgb(255, 253, 162);
    stroke: rgb(255, 254, 200);
    stroke-width: 15px;
}
</style>

</defs>

<circle id="sun_bc" class="cls-1" cx="140.52129" cy="140.52129" r="140.52129"/>

<circle id="sun_shine" class="cls-1" cx="140.52127" cy="140.52127" r="103.8"/>

<g id="sun_ball">
<circle class="cls-2" cx="139.52498" cy="140.78894" r="47.60732"/>
</g>

<g id="rays">
<polygon class="cls-3" points="85.18077 134.99298 85.18077 146.13947 50.14896 149.32417 50.14896 131.80827 85.18077 134.99298"/>
<polygon class="cls-3" points="96.27569 104.99209 104.15745 97.11034 82.15659 70.60562 69.77098 82.99124 96.27569 104.99209"/>
<polygon class="cls-3" points="134.59235 86.39978 145.73883 86.39978 148.92354 51.36797 131.40764 51.36797 134.59235 86.39978"/>
<polygon class="cls-3" points="183.63943 104.94714 175.75768 97.06539 197.75853 70.56067 210.14415 82.94629 183.63943 104.94714"/>
<polygon class="cls-3" points="95.49373 175.78346 103.37548 183.66522 81.37462 210.16994 68.98901 197.78432 95.49373 175.78346"/>
<polygon class="cls-3" points="133.81038 194.37578 144.95686 194.37578 148.14157 229.40758 130.62567 229.40758 133.81038 194.37578"/>
<polygon class="cls-3" points="193.95239 145.82751 193.95239 134.68105 228.98421 131.49632 228.98421 149.01224 193.95239 145.82751"/>
<polygon class="cls-3" points="182.85745 175.82841 174.97571 183.71017 196.97656 210.21487 209.36218 197.82927 182.85745 175.82841"/>
</g>

</svg>